<svg width="24" height="24" viewBox="0 0 24 24" fill="none" xmlns="http://www.w3.org/2000/svg">
<g clip-path="url(#clip0_22_2)">
<path d="M4.57426 23.7624L0 23.7624L-1.9735e-07 19.2475L1.77068 19.2475L1.77068 22.0259L4.57426 22.0259L4.57426 23.7624Z" fill="#00FF87" stroke="#00FF87" stroke-width="0.046875"/>
<path d="M19.4257 23.7029L24 23.7029L24 19.1881L22.2293 19.1881L22.2293 21.9665L19.4257 21.9665L19.4257 23.7029Z" fill="#00FF87" stroke="#00FF87" stroke-width="0.046875"/>
<path d="M4.57426 5.45475e-08L0 0L-5.31306e-08 4.45544L1.77068 4.45544L1.77068 1.71363L4.57426 1.71363L4.57426 5.45475e-08Z" fill="#00FF87" stroke="#00FF87" stroke-width="0.046875"/>
<path d="M23.9406 4.75236L23.9406 0.178101L19.4852 0.178101L19.4852 1.94878L22.227 1.94878L22.227 4.75236L23.9406 4.75236Z" fill="#00FF87" stroke="#00FF87" stroke-width="0.046875"/>
<path d="M13.1383 2L12.4363 11.9763H9L13.1383 2Z" fill="#00FF87"/>
<path d="M11.3647 21.2874L12.0668 11.3111L15.5031 11.3111L11.3647 21.2874Z" fill="#00FF87"/>
</g>
<defs>
<clipPath id="clip0_22_2">
<rect width="24" height="24" fill="white"/>
</clipPath>
</defs>
</svg>
